<svg width="23" height="23" viewBox="0 0 23 23" fill="none" xmlns="http://www.w3.org/2000/svg">
<path fill-rule="evenodd" clip-rule="evenodd" d="M12.0943 4.76403L19.916 11.847C20.0252 11.9458 20.0285 12.1092 19.9235 12.2119C19.8185 12.3146 19.6449 12.3177 19.5358 12.2189L11.7098 5.13213C11.7066 5.12921 11.7035 5.12621 11.7004 5.12313C11.6771 5.09985 11.6077 5.06607 11.5008 5.06589C11.3943 5.06571 11.324 5.09908 11.2991 5.12375C11.2962 5.12661 11.2933 5.1294 11.2903 5.13213L3.46432 12.2189C3.35519 12.3177 3.18162 12.3146 3.07662 12.2119C2.97162 12.1092 2.97496 11.9458 3.08408 11.847L10.9061 4.76379C11.0681 4.60662 11.3031 4.54947 11.5018 4.54981C11.7 4.55014 11.9341 4.60783 12.0943 4.76403ZM14.7512 5.36306C14.7512 5.22055 14.874 5.10502 15.0254 5.10502H16.7881C16.9395 5.10502 17.0623 5.22055 17.0623 5.36306V8.16237C17.0623 8.30488 16.9395 8.42041 16.7881 8.42041C16.6367 8.42041 16.5139 8.30488 16.5139 8.16237V5.6211H15.2996V6.35609C15.2996 6.4986 15.1769 6.61413 15.0254 6.61413C14.874 6.61413 14.7512 6.4986 14.7512 6.35609V5.36306Z" fill="#3D3D3D"/>
<path d="M6 11C6 16.0012 6 18.1477 6 18.801C6 18.9114 6.08954 19 6.2 19H16.8C16.9105 19 17 18.9105 17 18.8V11" stroke="#3D3D3D" stroke-width="0.6" stroke-linecap="round"/>
<path d="M1 17C1 19.9561 1 21.3164 1 21.8008C1 21.9112 1.08954 22 1.2 22H5.56522" stroke="#3D3D3D" stroke-width="0.7" stroke-linecap="round"/>
<path d="M5.56525 1C2.90168 1 1.65707 1 1.1998 1C1.08934 1 1.00003 1.08954 1.00003 1.2L1.00003 6" stroke="#3D3D3D" stroke-width="0.7" stroke-linecap="round"/>
<path d="M22 17C22 19.9561 22 21.3164 22 21.8008C22 21.9112 21.9105 22 21.8 22H17.4348" stroke="#3D3D3D" stroke-width="0.7" stroke-linecap="round"/>
<path d="M17.4348 1C20.0983 1 21.3429 1 21.8002 1C21.9107 1 22 1.08954 22 1.2L22 6" stroke="#3D3D3D" stroke-width="0.7" stroke-linecap="round"/>
</svg>
