<svg width="16" height="7" viewBox="0 0 16 7" fill="none" xmlns="http://www.w3.org/2000/svg">
<g opacity="0.7">
<path d="M3.80993 5.75228C4.00125 5.95141 3.99492 6.26793 3.79579 6.45925C3.59667 6.65056 3.28015 6.64423 3.08883 6.44511L3.80993 5.75228ZM1 3.54934L0.639448 3.89575C0.453517 3.70223 0.453517 3.39644 0.639448 3.20292L1 3.54934ZM3.08883 0.653569C3.28015 0.454441 3.59667 0.448111 3.79579 0.63943C3.99492 0.830748 4.00125 1.14727 3.80993 1.34639L3.08883 0.653569ZM3.08883 6.44511L0.639448 3.89575L1.36055 3.20292L3.80993 5.75228L3.08883 6.44511ZM0.639448 3.20292L3.08883 0.653569L3.80993 1.34639L1.36055 3.89575L0.639448 3.20292Z" fill="#7E7CCF"/>
</g>
<g opacity="0.7">
<path d="M12.1119 5.75228C11.9206 5.95141 11.927 6.26793 12.1261 6.45925C12.3252 6.65056 12.6417 6.64423 12.833 6.44511L12.1119 5.75228ZM14.9219 3.54934L15.2824 3.89575C15.4684 3.70223 15.4684 3.39644 15.2824 3.20292L14.9219 3.54934ZM12.833 0.653569C12.6417 0.454441 12.3252 0.448111 12.1261 0.63943C11.927 0.830748 11.9206 1.14727 12.1119 1.34639L12.833 0.653569ZM12.833 6.44511L15.2824 3.89575L14.5613 3.20292L12.1119 5.75228L12.833 6.44511ZM15.2824 3.20292L12.833 0.653569L12.1119 1.34639L14.5613 3.89575L15.2824 3.20292Z" fill="#7E7CCF"/>
</g>
</svg>
