<svg width="21" height="21" viewBox="0 0 21 21" fill="none" xmlns="http://www.w3.org/2000/svg">
<path d="M19.9828 9.01157H3.3529V4.65811C3.3529 4.65663 3.3529 4.65524 3.3529 4.65376C3.35311 4.05526 3.85391 3.56832 4.46943 3.56832C4.72777 3.56598 4.97883 3.65384 5.17933 3.81676C5.37983 3.97969 5.5172 4.20747 5.56775 4.46082L4.8823 4.62181C4.85044 4.62881 4.82028 4.64206 4.7936 4.66082C4.76691 4.67957 4.74421 4.70344 4.72683 4.73104C4.70945 4.75864 4.69773 4.78942 4.69235 4.82159C4.68698 4.85376 4.68805 4.88668 4.6955 4.91843C4.70296 4.95019 4.71666 4.98014 4.73579 5.00655C4.75492 5.03297 4.77912 5.05532 4.80697 5.0723C4.83482 5.08927 4.86577 5.10055 4.89801 5.10546C4.93026 5.11037 4.96316 5.10882 4.9948 5.10091L5.85613 4.89862C5.87702 4.89649 5.89755 4.89166 5.9172 4.88426L6.77246 4.68329C6.80411 4.67609 6.83402 4.66269 6.86048 4.64388C6.88693 4.62507 6.9094 4.60121 6.92659 4.57368C6.94378 4.54615 6.95536 4.51548 6.96065 4.48346C6.96595 4.45143 6.96485 4.41868 6.95743 4.38708C6.95001 4.35548 6.93642 4.32566 6.91742 4.29933C6.89843 4.27301 6.87441 4.2507 6.84676 4.2337C6.81911 4.2167 6.78837 4.20533 6.75631 4.20026C6.72425 4.19519 6.6915 4.19651 6.65995 4.20414L6.04727 4.34803C5.97093 3.98677 5.77225 3.66292 5.48478 3.43118C5.19731 3.19946 4.83867 3.07404 4.46943 3.07614C3.58677 3.07614 2.86814 3.77713 2.86125 4.64129C2.86125 4.6449 2.86072 4.64839 2.86072 4.65204V9.01157H1.01718C0.676758 9.01157 0.410156 9.37424 0.410156 9.83708V9.9327C0.410156 10.2738 0.555269 10.56 0.767774 10.6874C0.804391 12.1553 1.27453 13.5795 2.11899 14.7807C2.97732 16.0122 4.21489 17.0366 5.69817 17.7432C5.89513 17.8362 6.11024 17.8843 6.32801 17.8841L14.7302 17.8854H14.7305C14.958 17.8855 15.1826 17.833 15.3865 17.732C16.8298 17.0115 18.0405 15.9784 18.888 14.7444C19.7301 13.518 20.1908 12.1204 20.2262 10.6912C20.4422 10.5656 20.5899 10.2771 20.5899 9.9327V9.83708C20.5899 9.37424 20.3232 9.01157 19.9828 9.01157ZM20.0976 9.83708V9.9327C20.0976 10.1328 20.0138 10.2518 19.9799 10.266H17.5444V9.50381H19.98C20.0138 9.51774 20.0976 9.6366 20.0976 9.83708ZM13.2084 9.50381H17.0522V13.9018L13.2084 13.9001V9.50381ZM17.0428 14.394C16.9918 14.7644 16.7215 15.0482 16.3958 15.0482H13.8647C13.5385 15.0482 13.2679 14.7635 13.2175 14.3923L17.0428 14.394ZM0.902342 9.83708C0.902342 9.63611 0.986139 9.51746 1.01985 9.50381H12.7161V10.2662H1.01998C0.986181 10.2523 0.902342 10.1334 0.902342 9.93291V9.83708ZM18.4822 14.4656C17.6819 15.631 16.5355 16.6081 15.1667 17.2916C15.031 17.3587 14.8818 17.3934 14.7305 17.3932L6.32834 17.392C6.18372 17.3923 6.04085 17.3605 5.90998 17.2989C3.08027 15.9507 1.35848 13.5187 1.26209 10.7583H12.7161V14.268C12.7161 14.9697 13.2314 15.5405 13.8646 15.5405H16.3957C17.029 15.5405 17.5441 14.9697 17.5441 14.268V10.7583H19.7316C19.684 12.0642 19.2545 13.3411 18.4822 14.4656Z" fill="#3D3D3D"/>
</svg>
