<svg width="20" height="20" viewBox="0 0 20 20" fill="none" xmlns="http://www.w3.org/2000/svg">
<path d="M19.3939 10.5002H19.3738V9.06072C19.3738 8.65625 19.1111 8.31225 18.7475 8.18965V2.20716C18.7475 2.04536 18.6163 1.91418 18.4546 1.91418H1.54547C1.38367 1.91418 1.2525 2.04536 1.2525 2.20716V8.18965C0.888907 8.31225 0.626251 8.65625 0.626251 9.06065V10.5001H0.606095C0.271875 10.5002 0 10.7721 0 11.1063V13.6113C0 13.9455 0.271875 14.2174 0.606095 14.2174H0.626251V16.4295C0.626251 16.5913 0.757427 16.7225 0.91922 16.7225H1.54547C1.67989 16.7225 1.79707 16.6309 1.82969 16.5005L2.40047 14.2174H17.5995L18.1703 16.5005C18.2029 16.6309 18.3201 16.7225 18.4545 16.7225H19.0808C19.2426 16.7225 19.3737 16.5913 19.3737 16.4295V14.2174H19.3939C19.7281 14.2174 20 13.9455 20 13.6113V11.1063C20.0001 10.7721 19.7281 10.5002 19.3939 10.5002ZM1.31672 16.1366H1.21219V14.2175H1.79653L1.31672 16.1366ZM18.7879 16.1366H18.6833L18.2035 14.2175H18.7879V16.1366ZM19.3939 13.6315H0.606095C0.594962 13.6315 0.585939 13.6225 0.585939 13.6113V11.1063C0.585939 11.0951 0.594962 11.0861 0.606095 11.0861H17.202C17.3638 11.0861 17.4949 10.9549 17.4949 10.7931C17.4949 10.6313 17.3638 10.5001 17.202 10.5001H1.21219V9.06065C1.21219 8.87692 1.36172 8.72738 1.54547 8.72738H2.17176C2.33356 8.72738 2.46473 8.59625 2.46473 8.43445C2.46473 8.27265 2.33356 8.14145 2.17176 8.14145H1.83844V2.50012H18.1615V8.14145H16.5556V6.55563C16.5556 6.04876 16.1432 5.63641 15.6363 5.63641H11.2525C10.7457 5.63641 10.3333 6.0488 10.3333 6.55563V8.14145H9.66673V6.55563C9.66673 6.04876 9.25433 5.63641 8.74753 5.63641H4.36364C3.85677 5.63641 3.44442 6.0488 3.44442 6.55563V8.14145H3.42427C3.26247 8.14145 3.13129 8.27265 3.13129 8.43445C3.13129 8.59625 3.26247 8.72738 3.42427 8.72738H18.4545C18.6383 8.72738 18.7878 8.87692 18.7878 9.06065V10.5001H18.4546C18.2928 10.5001 18.1616 10.6313 18.1616 10.7931C18.1616 10.9549 18.2928 11.0861 18.4546 11.0861H19.3939C19.4051 11.0861 19.4141 11.0951 19.4141 11.1063V13.6113C19.4141 13.6224 19.4051 13.6315 19.3939 13.6315ZM15.9697 6.55563V8.14145H10.9193V6.55563C10.9193 6.37188 11.0688 6.22235 11.2525 6.22235H15.6363C15.8201 6.22231 15.9697 6.37184 15.9697 6.55563ZM9.08073 6.55563V8.14145H4.03036V6.55563C4.03036 6.37188 4.17989 6.22235 4.36364 6.22235H8.74747C8.93127 6.22231 9.08073 6.37184 9.08073 6.55563Z" fill="#3D3D3D"/>
</svg>
