<svg width="24" height="24" viewBox="0 0 24 24" fill="none" xmlns="http://www.w3.org/2000/svg">
<circle cx="12" cy="12" r="11.5" stroke="#333333"/>
<path d="M16.4691 7.57408C16.4164 7.51618 16.3525 7.46957 16.2813 7.43706C16.2101 7.40456 16.1331 7.38682 16.0548 7.38493C15.9765 7.38305 15.8987 7.39705 15.826 7.42608C15.7533 7.45512 15.6873 7.4986 15.6319 7.55389L15.1858 7.99775C15.1318 8.05184 15.1014 8.12519 15.1014 8.20166C15.1014 8.27813 15.1318 8.35147 15.1858 8.40556L15.5947 8.81373C15.6215 8.84066 15.6534 8.86203 15.6885 8.87661C15.7236 8.89119 15.7612 8.89869 15.7992 8.89869C15.8372 8.89869 15.8748 8.89119 15.9099 8.87661C15.9449 8.86203 15.9768 8.84066 16.0036 8.81373L16.4385 8.38104C16.6584 8.16145 16.679 7.80376 16.4691 7.57408ZM14.284 8.89919L7.77495 15.3967C7.73549 15.436 7.7068 15.4848 7.69166 15.5384L7.39058 16.4352C7.38337 16.4595 7.38286 16.4853 7.3891 16.5099C7.39534 16.5345 7.40811 16.557 7.42606 16.5749C7.444 16.5929 7.46646 16.6057 7.49106 16.6119C7.51566 16.6181 7.54149 16.6176 7.56582 16.6104L8.46184 16.3093C8.51544 16.2942 8.56425 16.2655 8.60355 16.2261L15.1011 9.71625C15.1612 9.65549 15.1949 9.57347 15.1949 9.488C15.1949 9.40254 15.1612 9.32052 15.1011 9.25976L14.7423 8.89919C14.6815 8.83853 14.5991 8.80446 14.5132 8.80446C14.4273 8.80446 14.3449 8.83853 14.284 8.89919Z" fill="#333333" stroke="#333333" stroke-width="0.5"/>
</svg>
