<svg width="14" height="14" viewBox="0 0 14 14" fill="none" xmlns="http://www.w3.org/2000/svg">
<path d="M6.44562 5.87383H7.53938V11.2H6.44562V5.87383ZM6.99688 4.99611C6.79854 4.99611 6.63229 4.9263 6.49813 4.78666C6.36396 4.64037 6.29688 4.46084 6.29688 4.24806C6.29688 4.03528 6.36396 3.85907 6.49813 3.71943C6.63229 3.57314 6.79854 3.5 6.99688 3.5C7.19521 3.5 7.36146 3.56982 7.49563 3.70946C7.62979 3.84244 7.69687 4.012 7.69687 4.21813C7.69687 4.43756 7.62979 4.62375 7.49563 4.77668C7.36729 4.92297 7.20104 4.99611 6.99688 4.99611Z" fill="#333333"/>
<circle cx="7" cy="7" r="6.5" stroke="#333333"/>
</svg>
