<svg width="21" height="22" viewBox="0 0 21 22" fill="none" xmlns="http://www.w3.org/2000/svg">
<path d="M5.65 19C5.65 19.1933 5.8067 19.35 6 19.35L9.15 19.35C9.3433 19.35 9.5 19.1933 9.5 19C9.5 18.8067 9.3433 18.65 9.15 18.65L6.35 18.65L6.35 15.85C6.35 15.6567 6.1933 15.5 6 15.5C5.8067 15.5 5.65 15.6567 5.65 15.85L5.65 19ZM15.35 10C15.35 9.8067 15.1933 9.65 15 9.65L11.85 9.65C11.6567 9.65 11.5 9.8067 11.5 10C11.5 10.1933 11.6567 10.35 11.85 10.35L14.65 10.35L14.65 13.15C14.65 13.3433 14.8067 13.5 15 13.5C15.1933 13.5 15.35 13.3433 15.35 13.15L15.35 10ZM6.24749 19.2475L15.2475 10.2475L14.7525 9.75251L5.75251 18.7525L6.24749 19.2475Z" fill="#3D3D3D"/>
<path fill-rule="evenodd" clip-rule="evenodd" d="M11.234 0.249059L20.8961 8.48383C21.0309 8.59871 21.0351 8.78862 20.9054 8.90801C20.7757 9.0274 20.5612 9.03106 20.4264 8.91617L10.7591 0.67702C10.7552 0.673618 10.7513 0.67013 10.7475 0.666558C10.7187 0.63949 10.633 0.600212 10.5009 0.600001C10.3693 0.599791 10.2825 0.638595 10.2518 0.66727C10.2482 0.670594 10.2446 0.673845 10.2408 0.67702L0.573562 8.91617C0.438767 9.03106 0.224348 9.0274 0.0946427 8.90801C-0.0350624 8.78862 -0.0309364 8.59871 0.103858 8.48383L9.76633 0.248777C9.96636 0.066059 10.2567 -0.000390007 10.5021 1.72058e-06C10.747 0.000392483 11.0361 0.0674606 11.234 0.249059ZM14.5161 0.945503C14.5161 0.779817 14.6678 0.645503 14.8548 0.645503H17.0323C17.2193 0.645503 17.371 0.779817 17.371 0.945503V4.2C17.371 4.36569 17.2193 4.5 17.0323 4.5C16.8452 4.5 16.6935 4.36569 16.6935 4.2V1.2455H15.1935V2.1C15.1935 2.26569 15.0419 2.4 14.8548 2.4C14.6678 2.4 14.5161 2.26569 14.5161 2.1V0.945503Z" fill="#3D3D3D"/>
<path d="M3 9C3 15.9533 3.00007 19.857 3.00008 20.8005C3.00009 20.9109 3.08963 21 3.20009 21H17.8C17.9105 21 18 20.9105 18 20.8L17.9999 9" stroke="#3D3D3D" stroke-width="0.7" stroke-linecap="round"/>
</svg>
