<svg width="28" height="28" viewBox="0 0 28 28" fill="none" xmlns="http://www.w3.org/2000/svg">
<circle cx="14" cy="14" r="13.5" stroke="#F6F6F4"/>
<path d="M14 2.15381C7.46806 2.15381 2.15381 7.46806 2.15381 14C2.15381 20.5319 7.46806 25.8461 14 25.8461C20.5319 25.8461 25.8461 20.5319 25.8461 14C25.8461 7.46806 20.5319 2.15381 14 2.15381ZM11.1398 8.80702C11.8614 8.04214 12.8769 7.62126 14 7.62126C15.1231 7.62126 16.1294 8.04499 16.8539 8.81385C17.588 9.59297 17.9451 10.6398 17.8608 11.7651C17.6922 14 15.9608 15.8224 14 15.8224C12.0391 15.8224 10.3043 14 10.1391 11.7646C10.0554 10.6301 10.4119 9.57987 11.1398 8.80702ZM14 24.0236C12.6618 24.0245 11.3372 23.7567 10.1045 23.236C8.87182 22.7154 7.75624 21.9525 6.82393 20.9926C7.35789 20.2311 8.03824 19.5837 8.82524 19.0881C10.277 18.1575 12.1143 17.6449 14 17.6449C15.8857 17.6449 17.723 18.1575 19.173 19.0881C19.9606 19.5835 20.6416 20.2309 21.176 20.9926C20.2438 21.9526 19.1282 22.7155 17.8955 23.2362C16.6628 23.7569 15.3381 24.0246 14 24.0236Z" fill="#F6F6F4"/>
</svg>
