<svg width="23" height="23" viewBox="0 0 23 23" fill="none" xmlns="http://www.w3.org/2000/svg">
<path d="M17 0.65C16.8067 0.65 16.65 0.8067 16.65 1C16.65 1.1933 16.8067 1.35 17 1.35V0.65ZM13 1.35C13.1933 1.35 13.35 1.1933 13.35 1C13.35 0.8067 13.1933 0.65 13 0.65V1.35ZM6.65 4C6.65 4.1933 6.8067 4.35 7 4.35C7.1933 4.35 7.35 4.1933 7.35 4H6.65ZM7.35 19.5C7.35 19.3067 7.1933 19.15 7 19.15C6.8067 19.15 6.65 19.3067 6.65 19.5H7.35ZM7.35 8.5C7.35 8.3067 7.1933 8.15 7 8.15C6.8067 8.15 6.65 8.3067 6.65 8.5H7.35ZM6.65 16C6.65 16.1933 6.8067 16.35 7 16.35C7.1933 16.35 7.35 16.1933 7.35 16H6.65ZM14.5 7.15C14.3067 7.15 14.15 7.3067 14.15 7.5C14.15 7.6933 14.3067 7.85 14.5 7.85V7.15ZM17 1.35H21.8V0.65H17V1.35ZM1.2 1.35H7V0.65H1.2V1.35ZM7 1.35H13V0.65H7V1.35ZM6.65 1V4H7.35V1H6.65ZM21.65 1.2V7.5H22.35V1.2H21.65ZM21.65 7.5V21.8H22.35V7.5H21.65ZM1.35 21.8V13H0.65V21.8H1.35ZM1.35 13V1.2H0.65V13H1.35ZM1 13.35H7V12.65H1V13.35ZM21.8 21.65H7V22.35H21.8V21.65ZM7 21.65H1.2V22.35H7V21.65ZM7.35 22V19.5H6.65V22H7.35ZM6.65 8.5V13H7.35V8.5H6.65ZM7.35 16V13H6.65V16H7.35ZM22 7.15H14.5V7.85H22V7.15ZM1.2 0.65C0.896244 0.65 0.65 0.896243 0.65 1.2H1.35C1.35 1.28284 1.28284 1.35 1.2 1.35V0.65ZM0.65 21.8C0.65 22.1038 0.896243 22.35 1.2 22.35V21.65C1.28284 21.65 1.35 21.7172 1.35 21.8H0.65ZM21.65 21.8C21.65 21.7172 21.7172 21.65 21.8 21.65V22.35C22.1038 22.35 22.35 22.1038 22.35 21.8H21.65ZM21.8 1.35C21.7172 1.35 21.65 1.28284 21.65 1.2H22.35C22.35 0.896244 22.1038 0.65 21.8 0.65V1.35Z" fill="#3D3D3D"/>
</svg>
