<svg width="27" height="27" viewBox="0 0 27 27" fill="none" xmlns="http://www.w3.org/2000/svg">
<g opacity="0.5">
<path d="M14.2082 8.07119L7.34079 14.9386C6.84655 15.4487 6.57268 16.1327 6.57829 16.843C6.5839 17.5532 6.86854 18.2328 7.37078 18.735C7.87302 19.2373 8.55259 19.5219 9.26284 19.5275C9.97309 19.5331 10.6571 19.2593 11.1672 18.765L20.1748 9.76979C20.6093 9.34577 20.9552 8.83975 21.1926 8.28104C21.43 7.72234 21.5541 7.12206 21.5578 6.51502C21.5615 5.90798 21.4447 5.30625 21.2141 4.7447C20.9834 4.18316 20.6437 3.67297 20.2144 3.24372C19.7852 2.81447 19.275 2.47469 18.7134 2.24408C18.1519 2.01348 17.5502 1.89663 16.9431 1.90031C16.3361 1.90399 15.7358 2.02813 15.1771 2.26553C14.6184 2.50294 14.1124 2.84888 13.6884 3.28331L4.62628 12.3454C4.01326 12.9409 3.52474 13.6524 3.18912 14.4384C2.85351 15.2244 2.67749 16.0693 2.67131 16.9239C2.66512 17.7785 2.8289 18.6259 3.1531 19.4167C3.47731 20.2075 3.95548 20.9259 4.55982 21.5302C5.16416 22.1346 5.8826 22.6128 6.67339 22.937C7.46417 23.2612 8.31152 23.4249 9.16616 23.4188C10.0208 23.4126 10.8657 23.2366 11.6517 22.9009C12.4377 22.5653 13.1492 22.0768 13.7447 21.4638L22.2129 12.9956" stroke="#333333" stroke-miterlimit="10" stroke-linecap="round"/>
</g>
</svg>
